<svg id="Layer_1" data-name="Layer 1" xmlns="http://www.w3.org/2000/svg" xmlns:xlink="http://www.w3.org/1999/xlink" viewBox="0 0 82 82"><defs><style>.cls-1{fill:none;}.cls-2{clip-path:url(#clip-path);}.cls-3{fill:#3cdee0;}.cls-4{fill:#f2d261;}</style><clipPath id="clip-path" transform="translate(-1 -2)"><ellipse class="cls-1" cx="42.5" cy="41.01" rx="40.5" ry="40.01"/></clipPath></defs><title>LOGO</title><g class="cls-2"><path class="cls-3" d="M11.89,2H9.25A8.25,8.25,0,0,0,1,10.25V77.73l20-32V32L35.29,52h8.08Z" transform="translate(-1 -2)"/><path class="cls-3" d="M75,2H57L45,18,59,41l6-8V49.59L83,79.22V10A8,8,0,0,0,75,2Z" transform="translate(-1 -2)"/><polygon class="cls-4" points="82 77.22 82 82 62.58 82 62 81.09 42.67 51 41.38 51 22 82 0 82 0 75.73 24.58 36.41 34.29 50 42.37 50 10.89 0 35 0 82 77.22"/></g></svg>